<svg xmlns="http://www.w3.org/2000/svg" xmlns:xlink="http://www.w3.org/1999/xlink" id="exportSvg" width="400" height="545"><defs/><rect width="400" height="545" transform="translate(0, 0)" fill="rgb(255, 255, 255)" style="fill: rgb(255, 255, 255);"/><g><g id="__svelte-dw-svg" clip-path="url(#rect-mask-PP-N1mz7qBXvKyy_8jI7k)"><clipPath id="rect-mask-PP-N1mz7qBXvKyy_8jI7k"><rect x="0" y="0" width="400" height="545"/></clipPath><g id="outer-container-svg dw-chart-styles-svg datawrapper-9lMNm-cadg66-svg svelte-crzbxb-svg static-svg" clip-path="url(#rect-mask-rHGLWjYg14lFYQBrkPAHI)"><clipPath id="rect-mask-rHGLWjYg14lFYQBrkPAHI"><rect x="0" y="0" width="400" height="545"/></clipPath><g id="header-svg"><text transform="translate(0, 0)"><tspan fill="rgb(0,0,0)" x="0" y="22" style="font-family: Roboto; font-weight: 700; font-stretch: 100%; font-size: 22px;">Never swam faster</tspan></text><text transform="translate(0, 35)"><tspan fill="rgb(24,24,24)" x="0" y="14" style="font-family: Roboto; font-weight: 400; font-stretch: 100%; font-size: 14px;">Average top-50 world time, individual races</tspan></text></g><g id="chart-svg"><g id="svg-main-svg" clip-path="url(#rect-mask-yD1JZ25lyXAOluq_5BtOY)" transform="translate(0, 62)"><clipPath id="rect-mask-yD1JZ25lyXAOluq_5BtOY"><rect x="0" y="0" width="400" height="450"/></clipPath><g id="group-svg" transform="translate(29.76172, 33)"><g id="x-grid-svg"/><g id="y-grid-svg"/><g id="lines-svg"><g id="Backstroke-svg"><path d="M9.484852448799677,50.24885589038797C15.607956693220371,58.893957830952125,21.731060937641065,67.53905977151628,27.85416518206176,67.53905977151628C33.99404505454936,67.53905977151628,40.13392492703696,45.33043147989986,46.273804799524555,45.33043147989986C52.39690904394525,45.33043147989986,58.52001328836595,74.10109248609614,64.64311753278665,84.58146254550867C70.76622177720733,95.0618326049212,76.88932602162804,92.45852564246412,83.01243026604872,108.21265183637504C89.13553451046941,123.96677803028597,95.25863875489011,197.6806780619665,101.3817429993108,219.34526392245414C107.5216228717984,241.06920481269654,113.66150274428601,251.93117525781776,119.80138261677361,251.93117525781776C125.9244868611943,251.93117525781776,132.047591105615,192.83567978215908,138.1706953500357,192.83567978215908C144.29379959445637,192.83567978215908,150.4169038388771,238.93960533920625,156.54000808329778,252.6380836976535C162.66311232771847,266.3365620561007,168.78621657213915,275.02654993284256,174.90932081655984,275.02654993284256C181.04920068904744,275.02654993284256,187.18908056153506,255.95965449456082,193.32896043402266,253.20988111258052C199.45206467844335,250.46762077262747,205.57516892286404,249.09649060265096,211.69827316728473,249.09649060265096C217.8213774117054,249.09649060265096,223.94448165612613,288.87881696026676,230.06758590054682,294.5438307051744C236.1906901449675,300.20884445008204,242.3137943893882,303.04135132253583,248.43689863380888,303.04135132253583C254.57677850629648,303.04135132253583,260.7166583787841,291.95467705867304,266.8565382512717,291.95467705867304C272.97964249569236,291.95467705867304,279.1027467401131,295.5125279989347,285.2258509845338,295.5125279989347C291.3489552289545,295.5125279989347,297.47205947337517,295.0182835242632,303.59516371779586,294.0297945749203C309.71826796221654,293.04130562557737,315.84137220663723,205.20294941075417,321.9644764510579,205.20294941075417C328.1043563235455,205.20294941075417,334.24423619603317,333.1531302969622,340.38411606852077,333.1531302969622C346.50722031294146,333.1531302969622,352.63032455736214,316.8579959576497,358.75342880178283,300.56286161833714" stroke="rgb(136,245,255)" id="Backstroke" style="fill: none; stroke-width: 3; stroke-linejoin: round; stroke-linecap: round; stroke: rgb(136, 245, 255);"/></g><g id="Freestyle-svg"><path d="M9.484852448799677,50.24885589038797C15.607956693220371,64.79790362108493,21.731060937641065,79.34695135178187,27.85416518206176,79.34695135178187C33.99404505454936,79.34695135178187,40.13392492703696,57.26968752709551,46.273804799524555,57.26968752709551C52.39690904394525,57.26968752709551,58.52001328836595,86.04974052029108,64.64311753278665,95.73696380347874C70.76622177720733,105.42418708666641,76.88932602162804,102.288984944393,83.01243026604872,115.3930272262215C89.13553451046941,128.49706950805,95.25863875489011,199.03565347116188,101.3817429993108,207.53800274950828C107.5216228717984,216.0636461354666,113.66150274428601,220.32646782844574,119.80138261677361,220.32646782844574C125.9244868611943,220.32646782844574,132.047591105615,159.48796584427592,138.1706953500357,159.48796584427592C144.29379959445637,159.48796584427592,150.4169038388771,195.76102021220805,156.54000808329778,209.0222952036156C162.66311232771847,222.28357019502317,168.78621657213915,239.05561579272134,174.90932081655984,239.05561579272134C181.04920068904744,239.05561579272134,187.18908056153506,232.48213459632177,193.32896043402266,232.48213459632177C199.45206467844335,232.48213459632177,205.57516892286404,241.4875544641021,211.69827316728473,244.10417421039608C217.8213774117054,246.72079395669007,223.94448165612613,245.46340049829263,230.06758590054682,248.18185307408575C236.1906901449675,250.90030564987887,242.3137943893882,277.2669303675279,248.43689863380888,277.2669303675279C254.57677850629648,277.2669303675279,260.7166583787841,263.45907452834155,266.8565382512717,263.45907452834155C272.97964249569236,263.45907452834155,279.1027467401131,264.8047398597264,285.2258509845338,267.49607052249615C291.3489552289545,270.1874011852659,297.47205947337517,282.5970687020979,303.59516371779586,282.5970687020979C309.71826796221654,282.5970687020979,315.84137220663723,179.97385936441034,321.9644764510579,179.97385936441034C328.1043563235455,179.97385936441034,334.24423619603317,295.5424501566023,340.38411606852077,295.5424501566023C346.50722031294146,295.5424501566023,352.63032455736214,286.6637690032185,358.75342880178283,277.7850878498346" stroke="rgb(88,202,248)" id="Freestyle" style="fill: none; stroke-width: 3; stroke-linejoin: round; stroke-linecap: round; stroke: rgb(88, 202, 248);"/></g><g id="Breastroke-svg"><path d="M9.484852448799677,50.24885589038797C15.607956693220371,62.83665801971349,21.731060937641065,75.424460149039,27.85416518206176,75.424460149039C33.99404505454936,75.424460149039,40.13392492703696,50.33203647033428,46.273804799524555,50.33203647033428C52.39690904394525,50.33203647033428,58.52001328836595,91.70884515682651,64.64311753278665,94.3322111854776C70.76622177720733,96.9555772141287,76.88932602162804,95.64389419980314,83.01243026604872,98.26726022845423C89.13553451046941,100.89062625710532,95.25863875489011,165.06638906609282,101.3817429993108,191.9329734397162C107.5216228717984,218.87316489381527,113.66150274428601,259.61589533537034,119.80138261677361,259.61589533537034C125.9244868611943,259.61589533537034,132.047591105615,170.42863160971606,138.1706953500357,170.42863160971606C144.29379959445637,170.42863160971606,150.4169038388771,206.19868134995536,156.54000808329778,221.90104522508133C162.66311232771847,237.60340910020727,168.78621657213915,264.6428148604718,174.90932081655984,264.6428148604718C181.04920068904744,264.6428148604718,187.18908056153506,259.2201033114729,193.32896043402266,259.2201033114729C199.45206467844335,259.2201033114729,205.57516892286404,259.4220122494538,211.69827316728473,259.8258301254156C217.8213774117054,260.2296480013774,223.94448165612613,277.8314861095118,230.06758590054682,285.85213508568745C236.1906901449675,293.8727840618631,242.3137943893882,306.47883921273274,248.43689863380888,307.94972398246966C254.57677850629648,309.42463857349355,260.7166583787841,310.1620958690055,266.8565382512717,310.1620958690055C272.97964249569236,310.1620958690055,279.1027467401131,299.6929104474467,285.2258509845338,299.6929104474467C291.3489552289545,299.6929104474467,297.47205947337517,316.9229645547525,303.59516371779586,316.9229645547525C309.71826796221654,316.9229645547525,315.84137220663723,238.6390147303816,321.9644764510579,238.6390147303816C328.1043563235455,238.6390147303816,334.24423619603317,355,340.38411606852077,355C346.50722031294146,355,352.63032455736214,327.3607248232937,358.75342880178283,299.72144964658736" stroke="rgb(24,161,205)" id="Breastroke" style="fill: none; stroke-width: 3; stroke-linejoin: round; stroke-linecap: round; stroke: rgb(24, 161, 205);"/></g><g id="Medley-svg"><path d="M9.484852448799677,50.24885589038797C15.607956693220371,56.65514738967912,21.731060937641065,63.06143888897027,27.85416518206176,63.06143888897027C33.99404505454936,63.06143888897027,40.13392492703696,0,46.273804799524555,0C52.39690904394525,0,58.52001328836595,67.3981024331432,64.64311753278665,75.54464683704884C70.76622177720733,83.6911912409545,76.88932602162804,79.61791903900166,83.01243026604872,87.76446344290731C89.13553451046941,95.91100784681296,95.25863875489011,189.49555828058848,101.3817429993108,197.95900382316293C107.5216228717984,206.44563688777183,113.66150274428601,210.68895342007627,119.80138261677361,210.68895342007627C125.9244868611943,210.68895342007627,132.047591105615,177.13280083953873,138.1706953500357,177.13280083953873C144.29379959445637,177.13280083953873,150.4169038388771,220.01771379381256,156.54000808329778,235.58082928048282C162.66311232771847,251.14394476715304,168.78621657213915,270.51149375956015,174.90932081655984,270.51149375956015C181.04920068904744,270.51149375956015,187.18908056153506,255.66653254324038,193.32896043402266,255.66653254324038C199.45206467844335,255.66653254324038,205.57516892286404,264.7530396444687,211.69827316728473,267.90925353136083C217.8213774117054,271.065467418253,223.94448165612613,270.140774309105,230.06758590054682,274.6038158645933C236.1906901449675,279.0668574200816,242.3137943893882,300.07554148393587,248.43689863380888,300.07554148393587C254.57677850629648,300.07554148393587,260.7166583787841,290.92852514461606,266.8565382512717,285.8243856406092C272.97964249569236,280.73419187295207,279.1027467401131,269.4983329960274,285.2258509845338,269.4983329960274C291.3489552289545,269.4983329960274,297.47205947337517,285.50979981150203,303.59516371779586,285.50979981150203C309.71826796221654,285.50979981150203,315.84137220663723,187.89029956555493,321.9644764510579,187.89029956555493C328.1043563235455,187.89029956555493,334.24423619603317,294.59585300497406,340.38411606852077,294.59585300497406C346.50722031294146,294.59585300497406,352.63032455736214,284.69417926234627,358.75342880178283,274.7925055197185" stroke="rgb(0,122,164)" id="Medley" style="fill: none; stroke-width: 3; stroke-linejoin: round; stroke-linecap: round; stroke: rgb(0, 122, 164);"/></g><g id="Butterfly-svg"><path d="M9.484852448799677,50.24885589038797C15.607956693220371,68.893722728661,21.731060937641065,87.53858956693404,27.85416518206176,87.53858956693404C33.99404505454936,87.53858956693404,40.13392492703696,38.65927474686518,46.273804799524555,38.65927474686518C52.39690904394525,38.65927474686518,58.52001328836595,70.85263014704464,64.64311753278665,83.39127854716648C70.76622177720733,95.92992694728831,76.88932602162804,95.09959803533107,83.01243026604872,113.8911651475962C89.13553451046941,132.68273225986133,95.25863875489011,174.1473284944524,101.3817429993108,196.14068122075722C107.5216228717984,218.19428970795602,113.66150274428601,245.9427789534612,119.80138261677361,245.9427789534612C125.9244868611943,245.9427789534612,132.047591105615,152.48921110614663,138.1706953500357,152.48921110614663C144.29379959445637,152.48921110614663,150.4169038388771,200.96425059780051,156.54000808329778,212.56620830817587C162.66311232771847,224.1681660185512,168.78621657213915,229.96914487373888,174.90932081655984,229.96914487373888C181.04920068904744,229.96914487373888,187.18908056153506,202.69429121989438,193.32896043402266,202.69429121989438C199.45206467844335,202.69429121989438,205.57516892286404,204.67239821974832,211.69827316728473,208.62861221945622C217.8213774117054,212.5848262191641,223.94448165612613,230.0587081796449,230.06758590054682,238.3750571146134C236.1906901449675,246.69140604958193,242.3137943893882,258.5267058292673,248.43689863380888,258.5267058292673C254.57677850629648,258.5267058292673,260.7166583787841,258.4899081230386,266.8565382512717,258.4163127105813C272.97964249569236,258.3429183784858,279.1027467401131,243.2533262776527,285.2258509845338,243.2533262776527C291.3489552289545,243.2533262776527,297.47205947337517,250.14966702061835,303.59516371779586,250.14966702061835C309.71826796221654,250.14966702061835,315.84137220663723,169.78408239822693,321.9644764510579,169.78408239822693C328.1043563235455,169.78408239822693,334.24423619603317,292.35441001723683,340.38411606852077,292.35441001723683C346.50722031294146,292.35441001723683,352.63032455736214,277.1126902929335,358.75342880178283,261.87097056863024" stroke="rgb(0,85,125)" id="Butterfly" style="fill: none; stroke-width: 3; stroke-linejoin: round; stroke-linecap: round; stroke: rgb(0, 85, 125);"/></g></g><g id="line-symbols-svg"/><g id="x-grid-svg"><g id="x-tick-labels-svg date-axis-svg grid-x-svg datawrapper-9lMNm-63wp0p-svg" transform="translate(0, 360)"><text transform="translate(46.2738, 12) translate(-13.60742, 0) translate(13.607421875, 0)" style="text-anchor: middle;"><tspan fill="rgb(116, 116, 116)" style="font-family: Roboto; font-weight: 400; font-stretch: 100%; font-size: 12px;" x="0" dominant-baseline="auto" y="0">2005</tspan></text><text transform="translate(138.1707, 12) translate(-13.60742, 0) translate(13.607421875, 0)" style="text-anchor: middle;"><tspan fill="rgb(116, 116, 116)" style="font-family: Roboto; font-weight: 400; font-stretch: 100%; font-size: 12px;" x="0" dominant-baseline="auto" y="0">2010</tspan></text><text transform="translate(230.06759, 12) translate(-13.60741, 0) translate(13.607414245605469, 0)" style="text-anchor: middle;"><tspan fill="rgb(116, 116, 116)" style="font-family: Roboto; font-weight: 400; font-stretch: 100%; font-size: 12px;" x="0" dominant-baseline="auto" y="0">2015</tspan></text><text transform="translate(321.96448, 12) translate(-13.60742, 0) translate(13.607421875, 0)" style="text-anchor: middle;"><tspan fill="rgb(116, 116, 116)" style="font-family: Roboto; font-weight: 400; font-stretch: 100%; font-size: 12px;" x="0" dominant-baseline="auto" y="0">2020</tspan></text></g></g><g id="y-grid-svg"><g id="y-tick-labels-svg number-axis-svg grid-y-svg datawrapper-9lMNm-yhj5g2-svg" transform="translate(-5, 0)"><text transform="translate(0, 350.55478) translate(-23.75195, 0) translate(23.751953125, 0)" style="text-anchor: end;"><tspan fill="rgb(162, 162, 162)" style="font-family: Roboto; font-weight: 400; font-stretch: 100%; font-size: 12px;" x="0" dominant-baseline="auto" y="0">−4.5</tspan></text><text transform="translate(0, 317.6319) translate(-13.85547, 0) translate(13.85546875, 0)" style="text-anchor: end;"><tspan fill="rgb(162, 162, 162)" style="font-family: Roboto; font-weight: 400; font-stretch: 100%; font-size: 12px;" x="0" dominant-baseline="auto" y="0">−4</tspan></text><text transform="translate(0, 284.70902) translate(-23.75195, 0) translate(23.751953125, 0)" style="text-anchor: end;"><tspan fill="rgb(162, 162, 162)" style="font-family: Roboto; font-weight: 400; font-stretch: 100%; font-size: 12px;" x="0" dominant-baseline="auto" y="0">−3.5</tspan></text><text transform="translate(0, 251.78614) translate(-13.59375, 0) translate(13.59375, 0)" style="text-anchor: end;"><tspan fill="rgb(162, 162, 162)" style="font-family: Roboto; font-weight: 400; font-stretch: 100%; font-size: 12px;" x="0" dominant-baseline="auto" y="0">−3</tspan></text><text transform="translate(0, 218.86326) translate(-23.75195, 0) translate(23.751953125, 0)" style="text-anchor: end;"><tspan fill="rgb(162, 162, 162)" style="font-family: Roboto; font-weight: 400; font-stretch: 100%; font-size: 12px;" x="0" dominant-baseline="auto" y="0">−2.5</tspan></text><text transform="translate(0, 185.94038) translate(-13.85547, 0) translate(13.85546875, 0)" style="text-anchor: end;"><tspan fill="rgb(162, 162, 162)" style="font-family: Roboto; font-weight: 400; font-stretch: 100%; font-size: 12px;" x="0" dominant-baseline="auto" y="0">−2</tspan></text><text transform="translate(0, 153.0175) translate(-23.75195, 0) translate(23.751953125, 0)" style="text-anchor: end;"><tspan fill="rgb(162, 162, 162)" style="font-family: Roboto; font-weight: 400; font-stretch: 100%; font-size: 12px;" x="0" dominant-baseline="auto" y="0">−1.5</tspan></text><text transform="translate(0, 120.09462) translate(-13.59375, 0) translate(13.59375, 0)" style="text-anchor: end;"><tspan fill="rgb(162, 162, 162)" style="font-family: Roboto; font-weight: 400; font-stretch: 100%; font-size: 12px;" x="0" dominant-baseline="auto" y="0">−1</tspan></text><text transform="translate(0, 87.17174) translate(-23.75195, 0) translate(23.751953125, 0)" style="text-anchor: end;"><tspan fill="rgb(162, 162, 162)" style="font-family: Roboto; font-weight: 400; font-stretch: 100%; font-size: 12px;" x="0" dominant-baseline="auto" y="0">−0.5</tspan></text><text transform="translate(0, 54.24886) translate(-7, 0) translate(7, 0)" style="text-anchor: end;"><tspan fill="rgb(162, 162, 162)" style="font-family: Roboto; font-weight: 400; font-stretch: 100%; font-size: 12px;" x="0" dominant-baseline="auto" y="0">0</tspan></text><text transform="translate(0, 21.32598) translate(-16.89648, 0) translate(16.896484375, 0)" style="text-anchor: end;"><tspan fill="rgb(162, 162, 162)" style="font-family: Roboto; font-weight: 400; font-stretch: 100%; font-size: 12px;" x="0" dominant-baseline="auto" y="0">0.5</tspan></text></g><g id="y-base-lines-svg grid-y-svg datawrapper-9lMNm-1io9s9d-svg"><line x1="368.23828125" x2="0" y1="0" y2="0" transform="translate(0, 50.24886)" style="fill: none; stroke-width: 1; stroke-linejoin: miter; stroke-linecap: square; stroke: rgb(24, 24, 24);"/></g></g></g></g><g id="Backstroke-svg" clip-path="url(#rect-mask-H1S4eurYhrMIw0wk-pB0r)" transform="translate(0, 62)"><clipPath id="rect-mask-H1S4eurYhrMIw0wk-pB0r"><rect x="0" y="0" width="16" height="20"/></clipPath><path d="M1.5,10 L14.5,10" stroke="rgb(136,245,255)" id="Backstroke" style="fill: none; stroke-width: 3; stroke-linejoin: round; stroke-linecap: round; stroke: rgb(136, 245, 255);"/></g><text transform="translate(20, 64.78125)" id="Backstroke"><tspan fill="rgb(24,24,24)" x="0" y="12.828125" style="font-family: Roboto; font-weight: 400; font-stretch: 100%; font-size: 12px;">Backstroke</tspan></text><g id="Breastroke-svg" clip-path="url(#rect-mask-qX_O78h2GbP2kykgT3M2b)" transform="translate(87.57813, 62)"><clipPath id="rect-mask-qX_O78h2GbP2kykgT3M2b"><rect x="0" y="0" width="16" height="20"/></clipPath><path d="M1.5,10 L14.5,10" stroke="rgb(24,161,205)" id="Breastroke" style="fill: none; stroke-width: 3; stroke-linejoin: round; stroke-linecap: round; stroke: rgb(24, 161, 205);"/></g><text transform="translate(107.578125, 64.78125)" id="Breastroke"><tspan fill="rgb(24,24,24)" x="0" y="12.828125" style="font-family: Roboto; font-weight: 400; font-stretch: 100%; font-size: 12px;">Breastroke</tspan></text><g id="Butterfly-svg" clip-path="url(#rect-mask-rgWPkCTi3xxSU5BMEEwpJ)" transform="translate(173.10938, 62)"><clipPath id="rect-mask-rgWPkCTi3xxSU5BMEEwpJ"><rect x="0" y="0" width="16" height="20"/></clipPath><path d="M1.5,10 L14.5,10" stroke="rgb(0,85,125)" id="Butterfly" style="fill: none; stroke-width: 3; stroke-linejoin: round; stroke-linecap: round; stroke: rgb(0, 85, 125);"/></g><text transform="translate(193.109375, 64.78125)" id="Butterfly"><tspan fill="rgb(24,24,24)" x="0" y="12.828125" style="font-family: Roboto; font-weight: 400; font-stretch: 100%; font-size: 12px;">Butterfly</tspan></text><g id="Freestyle-svg" clip-path="url(#rect-mask-qWFwadUtHh2vyDJ-27CHG)" transform="translate(245.95313, 62)"><clipPath id="rect-mask-qWFwadUtHh2vyDJ-27CHG"><rect x="0" y="0" width="16" height="20"/></clipPath><path d="M1.5,10 L14.5,10" stroke="rgb(88,202,248)" id="Freestyle" style="fill: none; stroke-width: 3; stroke-linejoin: round; stroke-linecap: round; stroke: rgb(88, 202, 248);"/></g><text transform="translate(265.953125, 64.78125)" id="Freestyle"><tspan fill="rgb(24,24,24)" x="0" y="12.828125" style="font-family: Roboto; font-weight: 400; font-stretch: 100%; font-size: 12px;">Freestyle</tspan></text><g id="Medley-svg" clip-path="url(#rect-mask-eS8383fQFB9fXBXmjWdYu)" transform="translate(322.15625, 62)"><clipPath id="rect-mask-eS8383fQFB9fXBXmjWdYu"><rect x="0" y="0" width="16" height="20"/></clipPath><path d="M1.5,10 L14.5,10" stroke="rgb(0,122,164)" id="Medley" style="fill: none; stroke-width: 3; stroke-linejoin: round; stroke-linecap: round; stroke: rgb(0, 122, 164);"/></g><text transform="translate(342.15625, 64.78125)" id="Medley"><tspan fill="rgb(24,24,24)" x="0" y="12.828125" style="font-family: Roboto; font-weight: 400; font-stretch: 100%; font-size: 12px;">Medley</tspan></text><circle r="11" cx="11" cy="501" stroke="rgb(24,24,24)" fill="none"/><text transform="translate(7.546875, 494)"><tspan fill="rgb(24,24,24)" x="0" y="12" style="font-family: Roboto; font-weight: 700; font-stretch: 100%; font-size: 12px;">1</tspan></text><circle r="11" cx="72.75" cy="380" stroke="rgb(24,24,24)" fill="rgba(255,255,255,0.7)"/><text transform="translate(69.296875, 372.796875)"><tspan fill="rgb(24,24,24)" x="0" y="12" style="font-family: Roboto; font-weight: 700; font-stretch: 100%; font-size: 12px;">1</tspan></text><g id="tooltip-layer-svg" clip-path="url(#rect-mask-Dpzf9xIY4glkk4JxrR87X)" transform="translate(0, 62)"><clipPath id="rect-mask-Dpzf9xIY4glkk4JxrR87X"><rect x="0" y="0" width="400" height="450"/></clipPath><g id="group-svg" transform="translate(29.76172, 33)"/></g></g><g id="footer-svg"><text transform="translate(0, 532)"><tspan fill="rgb(136,136,136)" x="0" y="11" style="font-family: Roboto; font-weight: 400; font-stretch: 100%; font-size: 11px;">Chart:</tspan><tspan fill="rgb(136,136,136)" dx="2.734375" style="font-family: Roboto; font-weight: 400; font-stretch: 100%; font-size: 11px;">Marco Dalla Stella</tspan><tspan fill="rgb(136,136,136)" dx="2.734375" style="font-family: Roboto; font-weight: 400; font-stretch: 100%; font-size: 11px;">•</tspan><tspan fill="rgb(136,136,136)" dx="2.734375" style="font-family: Roboto; font-weight: 400; font-stretch: 100%; font-size: 11px;">Source</tspan><tspan fill="rgb(136,136,136)" style="font-family: Roboto; font-weight: 400; font-stretch: 100%; font-size: 11px;">:</tspan><tspan fill="rgb(136,136,136)" dx="2.734375" style="font-family: Roboto; font-weight: 400; font-stretch: 100%; font-size: 11px;">World Aquatics</tspan><tspan fill="rgb(136,136,136)" dx="2.734375" style="font-family: Roboto; font-weight: 400; font-stretch: 100%; font-size: 11px;">•</tspan><tspan fill="rgb(136,136,136)" dx="2.734375" style="font-family: Roboto; font-weight: 400; font-stretch: 100%; font-size: 11px;">Created with</tspan><tspan fill="rgb(136,136,136)" dx="2.734375" style="font-family: Roboto; font-weight: 400; font-stretch: 100%; font-size: 11px;">Datawrapper</tspan></text></g></g></g></g></svg>