<svg xmlns="http://www.w3.org/2000/svg" xmlns:xlink="http://www.w3.org/1999/xlink" id="exportSvg" width="600" height="545"><defs/><rect width="600" height="545" transform="translate(0, 0)" fill="rgb(255, 255, 255)" style="fill: rgb(255, 255, 255);"/><g><g id="__svelte-dw-svg" clip-path="url(#rect-mask-1X-tHYNFn-GsN0w-aJfA5)"><clipPath id="rect-mask-1X-tHYNFn-GsN0w-aJfA5"><rect x="0" y="0" width="600" height="545"/></clipPath><g id="outer-container-svg dw-chart-styles-svg datawrapper-9lMNm-cadg66-svg svelte-crzbxb-svg static-svg" clip-path="url(#rect-mask-EvKk3-8MYkb-HdjKClCts)"><clipPath id="rect-mask-EvKk3-8MYkb-HdjKClCts"><rect x="0" y="0" width="600" height="545"/></clipPath><g id="header-svg"><text transform="translate(0, 0)"><tspan fill="rgb(0,0,0)" x="0" y="22" style="font-family: Roboto; font-weight: 700; font-stretch: 100%; font-size: 22px;">Never swam faster</tspan></text><text transform="translate(0, 35)"><tspan fill="rgb(24,24,24)" x="0" y="14" style="font-family: Roboto; font-weight: 400; font-stretch: 100%; font-size: 14px;">Average top-50 world time, individual races</tspan></text></g><g id="chart-svg"><g id="svg-main-svg" clip-path="url(#rect-mask-uWmZ6sbVkd-MdmLv98as8)" transform="translate(0, 62)"><clipPath id="rect-mask-uWmZ6sbVkd-MdmLv98as8"><rect x="0" y="0" width="600" height="450"/></clipPath><g id="group-svg" transform="translate(29.76172, 33)"><g id="x-grid-svg"/><g id="y-grid-svg"/><g id="lines-svg"><g id="Backstroke-svg"><path d="M9.65763827549473,56.193790953476125C19.209736934050078,65.86169368700843,28.76183559260543,75.52959642054074,38.31393425116078,75.52959642054074C47.892203043027244,75.52959642054074,57.4704718348937,50.69346844371899,67.04874062676016,50.69346844371899C76.60083928531552,50.69346844371899,86.15293794387085,82.86798230135258,95.7050366024262,94.58828346638575C105.25713526098156,106.30858463141892,114.80923391953691,103.39728078889651,124.36133257809226,121.01527543391802C133.9134312366476,138.63327007893952,143.46552989520296,221.06825124112873,153.0176285537583,245.29597120342055C162.59589734562476,269.59006848067753,172.17416613749123,281.73711711930605,181.7524349293577,281.73711711930605C191.30453358791303,281.73711711930605,200.8566322464684,215.6500418972314,210.40873090502373,215.6500418972314C219.96082956357907,215.6500418972314,229.51292822213443,267.2085163934222,239.06502688068977,282.5276597970942C248.6171255392451,297.8468032007662,258.1692241978005,307.56490231926335,267.7213228563558,307.56490231926335C277.29959164822225,307.56490231926335,286.87786044008874,286.2422051671567,296.4561292319552,283.16710648364636C306.0082278905105,280.10040970910734,315.5603265490659,278.56706132183785,325.11242520762124,278.56706132183785C334.6645238661766,278.56706132183785,344.2166225247319,323.0560291076786,353.76872118328725,329.39126983085697C363.32081984184265,335.72651055403537,372.872918500398,338.89413091562454,382.4250171589534,338.89413091562454C392.0032859508198,338.89413091562454,401.5815547426863,326.4957937811076,411.15982353455274,326.4957937811076C420.7119221931081,326.4957937811076,430.2640208516635,330.4745735650058,439.8161195102188,330.4745735650058C449.36821816877415,330.4745735650058,458.9203168273295,329.92185509614785,468.4724154858848,328.816418158432C478.02451414444016,327.7109812207161,487.57661280299556,229.48048145371664,497.1287114615509,229.48048145371664C506.7069802534173,229.48048145371664,516.2852490452838,372.5684302194197,525.8635178371502,372.5684302194197C535.4156164957055,372.5684302194197,544.967715154261,354.34542083151246,554.5198138128163,336.1224114436052" stroke="rgb(136,245,255)" id="Backstroke" style="fill: none; stroke-width: 3; stroke-linejoin: round; stroke-linecap: round; stroke: rgb(136, 245, 255);"/></g><g id="Freestyle-svg"><path d="M9.65763827549473,56.193790953476125C19.209736934050078,72.46413447203017,28.76183559260543,88.73447799058422,38.31393425116078,88.73447799058422C47.892203043027244,88.73447799058422,57.4704718348937,64.04525619227302,67.04874062676016,64.04525619227302C76.60083928531552,64.04525619227302,86.15293794387085,96.23027320156497,95.7050366024262,107.06359050698892C105.25713526098156,117.89690781241288,114.80923391953691,114.39078034626485,124.36133257809226,129.0451600248167C133.9134312366476,143.69953970336857,143.46552989520296,222.5835336001444,153.0176285537583,232.091794624098C162.59589734562476,241.6261056782542,172.17416613749123,246.3932612053323,181.7524349293577,246.3932612053323C191.30453358791303,246.3932612053323,200.8566322464684,178.3569646202184,210.40873090502373,178.3569646202184C219.96082956357907,178.3569646202184,229.51292822213443,218.92147894153968,239.06502688068977,233.75169350939547C248.6171255392451,248.58190807725126,258.1692241978005,267.3382520273532,267.7213228563558,267.3382520273532C277.29959164822225,267.3382520273532,286.87786044008874,259.98706319645,296.4561292319552,259.98706319645C306.0082278905105,259.98706319645,315.5603265490659,270.05791302041837,325.11242520762124,272.9841046803584C334.6645238661766,275.9102963402985,344.2166225247319,274.5041408389357,353.76872118328725,277.5442131560902C363.32081984184265,280.5842854732448,372.872918500398,310.0703418476298,382.4250171589534,310.0703418476298C392.0032859508198,310.0703418476298,401.5815547426863,294.62888052887774,411.15982353455274,294.62888052887774C420.7119221931081,294.62888052887774,430.2640208516635,296.13375133608844,439.8161195102188,299.14349295050977C449.36821816877415,302.1532345649311,458.9203168273295,316.031088097839,468.4724154858848,316.031088097839C478.02451414444016,316.031088097839,487.57661280299556,201.26654131738283,497.1287114615509,201.26654131738283C506.7069802534173,201.26654131738283,516.2852490452838,330.5080358089327,525.8635178371502,330.5080358089327C535.4156164957055,330.5080358089327,544.967715154261,320.5789191388105,554.5198138128163,310.6498024686883" stroke="rgb(88,202,248)" id="Freestyle" style="fill: none; stroke-width: 3; stroke-linejoin: round; stroke-linecap: round; stroke: rgb(88, 202, 248);"/></g><g id="Breastroke-svg"><path d="M9.65763827549473,56.193790953476125C19.209736934050078,70.27085417979227,28.76183559260543,84.34791740610842,38.31393425116078,84.34791740610842C47.892203043027244,84.34791740610842,57.4704718348937,56.28681261612031,67.04874062676016,56.28681261612031C76.60083928531552,56.28681261612031,86.15293794387085,102.55890571059192,95.7050366024262,105.49264180460453C105.25713526098156,108.42637789861715,114.80923391953691,106.95950985161085,124.36133257809226,109.89324594562346C133.9134312366476,112.82698203963608,143.46552989520296,184.59537030771506,153.0176285537583,214.64053649455585C162.59589734562476,244.76801820519623,172.17416613749123,290.3310153468789,181.7524349293577,290.3310153468789C191.30453358791303,290.3310153468789,200.8566322464684,190.59201901142893,210.40873090502373,190.59201901142893C219.96082956357907,190.59201901142893,229.51292822213443,230.5940182984008,239.06502688068977,248.15412663199237C248.6171255392451,265.7142349655839,258.1692241978005,295.9526690129783,267.7213228563558,295.9526690129783C277.29959164822225,295.9526690129783,286.87786044008874,289.8883972243795,296.4561292319552,289.8883972243795C306.0082278905105,289.8883972243795,315.5603265490659,290.1141939803751,325.11242520762124,290.5657874923662C334.6645238661766,291.01738100435733,344.2166225247319,310.70169009993293,353.76872118328725,319.67126092681104C363.32081984184265,328.6408317536892,372.872918500398,342.73830751395735,382.4250171589534,344.38321245363505C392.0032859508198,346.03262398218857,401.5815547426863,346.8573297464653,411.15982353455274,346.8573297464653C420.7119221931081,346.8573297464653,430.2640208516635,335.149536472215,439.8161195102188,335.149536472215C449.36821816877415,335.149536472215,458.9203168273295,354.41807585418803,468.4724154858848,354.41807585418803C478.02451414444016,354.41807585418803,487.57661280299556,266.8723629520042,497.1287114615509,266.8723629520042C506.7069802534173,266.8723629520042,516.2852490452838,397,525.8635178371502,397C535.4156164957055,397,544.967715154261,366.0907260699932,554.5198138128163,335.18145213998645" stroke="rgb(24,161,205)" id="Breastroke" style="fill: none; stroke-width: 3; stroke-linejoin: round; stroke-linecap: round; stroke: rgb(24, 161, 205);"/></g><g id="Medley-svg"><path d="M9.65763827549473,56.193790953476125C19.209736934050078,63.35800989775384,28.76183559260543,70.52222884203155,38.31393425116078,70.52222884203155C47.892203043027244,70.52222884203155,57.4704718348937,0,67.04874062676016,0C76.60083928531552,0,86.15293794387085,75.37196243931788,95.7050366024262,84.48232336424898C105.25713526098156,93.59268428918008,114.80923391953691,89.03750382671454,124.36133257809226,98.14786475164564C133.9134312366476,107.25822567657674,143.46552989520296,211.91475109124963,153.0176285537583,221.37950568393148C162.59589734562476,230.87019111111383,172.17416613749123,235.615533824705,181.7524349293577,235.615533824705C191.30453358791303,235.615533824705,200.8566322464684,198.08935755858275,210.40873090502373,198.08935755858275C219.96082956357907,198.08935755858275,229.51292822213443,246.04797852434814,239.06502688068977,263.4523640122582C248.6171255392451,280.8567495001683,258.1692241978005,302.5156704860433,267.7213228563558,302.5156704860433C277.29959164822225,302.5156704860433,286.87786044008874,285.91440399906037,296.4561292319552,285.91440399906037C306.0082278905105,285.91440399906037,315.5603265490659,296.0759344756453,325.11242520762124,299.6055595829585C334.6645238661766,303.13518469027167,344.2166225247319,302.10109126961885,353.76872118328725,307.09215464293953C363.32081984184265,312.0832180162602,372.872918500398,335.57743653273957,382.4250171589534,335.57743653273957C392.0032859508198,335.57743653273957,401.5815547426863,325.348237978627,411.15982353455274,319.64022844879395C420.7119221931081,313.947814573414,430.2640208516635,301.38264281527574,439.8161195102188,301.38264281527574C449.36821816877415,301.38264281527574,458.9203168273295,319.28842401455296,468.4724154858848,319.28842401455296C478.02451414444016,319.28842401455296,487.57661280299556,210.11957444373326,497.1287114615509,210.11957444373326C506.7069802534173,210.11957444373326,516.2852490452838,329.4494468816188,525.8635178371502,329.4494468816188C535.4156164957055,329.4494468816188,544.967715154261,318.3763075131027,554.5198138128163,307.3031681445866" stroke="rgb(0,122,164)" id="Medley" style="fill: none; stroke-width: 3; stroke-linejoin: round; stroke-linecap: round; stroke: rgb(0, 122, 164);"/></g><g id="Butterfly-svg"><path d="M9.65763827549473,56.193790953476125C19.209736934050078,77.04452936134764,28.76183559260543,97.89526776921917,38.31393425116078,97.89526776921917C47.892203043027244,97.89526776921917,57.4704718348937,43.23304809719853,67.04874062676016,43.23304809719853C76.60083928531552,43.23304809719853,86.15293794387085,79.23519484049781,95.7050366024262,93.25728896683124C105.25713526098156,107.27938309316468,114.80923391953691,106.3508180845815,124.36133257809226,127.36561285519913C133.9134312366476,148.38040762581676,143.46552989520296,194.75067440083834,153.0176285537583,219.34605759053696C162.59589734562476,244.00882539171423,172.17416613749123,275.0402344916171,181.7524349293577,275.0402344916171C191.30453358791303,275.0402344916171,200.8566322464684,170.53018819476117,210.40873090502373,170.53018819476117C219.96082956357907,170.53018819476117,229.51292822213443,224.7403027812023,239.06502688068977,237.71488647421359C248.6171255392451,250.68947016722487,258.1692241978005,257.1767620137305,267.7213228563558,257.1767620137305C277.29959164822225,257.1767620137305,286.87786044008874,226.67502426562837,296.4561292319552,226.67502426562837C306.0082278905105,226.67502426562837,315.5603265490659,228.8871608260284,325.11242520762124,233.31143394682852C334.6645238661766,237.7357070676286,344.2166225247319,257.2769215417437,353.76872118328725,266.5771765478916C363.32081984184265,275.8774315540395,372.872918500398,289.1129639837158,382.4250171589534,289.1129639837158C392.0032859508198,289.1129639837158,401.5815547426863,289.071812746046,411.15982353455274,288.98951027070643C420.7119221931081,288.90743266551806,430.2640208516635,272.0325930485299,439.8161195102188,272.0325930485299C449.36821816877415,272.0325930485299,458.9203168273295,279.7448388934802,468.4724154858848,279.7448388934802C478.02451414444016,279.7448388934802,487.57661280299556,189.8712132735101,497.1287114615509,189.8712132735101C506.7069802534173,189.8712132735101,516.2852490452838,326.9428190896987,525.8635178371502,326.9428190896987C535.4156164957055,326.9428190896987,544.967715154261,309.89785365153415,554.5198138128163,292.8528882133696" stroke="rgb(0,85,125)" id="Butterfly" style="fill: none; stroke-width: 3; stroke-linejoin: round; stroke-linecap: round; stroke: rgb(0, 85, 125);"/></g></g><g id="line-symbols-svg"/><g id="x-grid-svg"><g id="x-tick-labels-svg date-axis-svg grid-x-svg datawrapper-9lMNm-63wp0p-svg" transform="translate(0, 402)"><text transform="translate(38.31393, 12) translate(-13.60742, 0) translate(13.607421875, 0)" style="text-anchor: middle;"><tspan fill="rgb(116, 116, 116)" style="font-family: Roboto; font-weight: 400; font-stretch: 100%; font-size: 12px;" x="0" dominant-baseline="auto" y="0">2004</tspan></text><text transform="translate(95.70504, 12) translate(-13.60743, 0) translate(13.607425689697266, 0)" style="text-anchor: middle;"><tspan fill="rgb(116, 116, 116)" style="font-family: Roboto; font-weight: 400; font-stretch: 100%; font-size: 12px;" x="0" dominant-baseline="auto" y="0">2006</tspan></text><text transform="translate(153.01763, 12) translate(-13.60742, 0) translate(13.607421875, 0)" style="text-anchor: middle;"><tspan fill="rgb(116, 116, 116)" style="font-family: Roboto; font-weight: 400; font-stretch: 100%; font-size: 12px;" x="0" dominant-baseline="auto" y="0">2008</tspan></text><text transform="translate(210.40873, 12) translate(-13.60742, 0) translate(13.607421875, 0)" style="text-anchor: middle;"><tspan fill="rgb(116, 116, 116)" style="font-family: Roboto; font-weight: 400; font-stretch: 100%; font-size: 12px;" x="0" dominant-baseline="auto" y="0">2010</tspan></text><text transform="translate(267.72132, 12) translate(-13.60742, 0) translate(13.607421875, 0)" style="text-anchor: middle;"><tspan fill="rgb(116, 116, 116)" style="font-family: Roboto; font-weight: 400; font-stretch: 100%; font-size: 12px;" x="0" dominant-baseline="auto" y="0">2012</tspan></text><text transform="translate(325.11243, 12) translate(-13.60742, 0) translate(13.607421875, 0)" style="text-anchor: middle;"><tspan fill="rgb(116, 116, 116)" style="font-family: Roboto; font-weight: 400; font-stretch: 100%; font-size: 12px;" x="0" dominant-baseline="auto" y="0">2014</tspan></text><text transform="translate(382.42502, 12) translate(-13.60742, 0) translate(13.607421875, 0)" style="text-anchor: middle;"><tspan fill="rgb(116, 116, 116)" style="font-family: Roboto; font-weight: 400; font-stretch: 100%; font-size: 12px;" x="0" dominant-baseline="auto" y="0">2016</tspan></text><text transform="translate(439.81612, 12) translate(-13.60742, 0) translate(13.607421875, 0)" style="text-anchor: middle;"><tspan fill="rgb(116, 116, 116)" style="font-family: Roboto; font-weight: 400; font-stretch: 100%; font-size: 12px;" x="0" dominant-baseline="auto" y="0">2018</tspan></text><text transform="translate(497.12871, 12) translate(-13.60742, 0) translate(13.607421875, 0)" style="text-anchor: middle;"><tspan fill="rgb(116, 116, 116)" style="font-family: Roboto; font-weight: 400; font-stretch: 100%; font-size: 12px;" x="0" dominant-baseline="auto" y="0">2020</tspan></text><text transform="translate(554.51981, 12) translate(-13.60742, 0) translate(13.607421875, 0)" style="text-anchor: middle;"><tspan fill="rgb(116, 116, 116)" style="font-family: Roboto; font-weight: 400; font-stretch: 100%; font-size: 12px;" x="0" dominant-baseline="auto" y="0">2022</tspan></text></g></g><g id="y-grid-svg"><g id="y-tick-labels-svg number-axis-svg grid-y-svg datawrapper-9lMNm-yhj5g2-svg" transform="translate(-5, 0)"><text transform="translate(0, 391.55563) translate(-23.75195, 0) translate(23.751953125, 0)" style="text-anchor: end;"><tspan fill="rgb(162, 162, 162)" style="font-family: Roboto; font-weight: 400; font-stretch: 100%; font-size: 12px;" x="0" dominant-baseline="auto" y="0">−4.5</tspan></text><text transform="translate(0, 354.73765) translate(-13.85547, 0) translate(13.85546875, 0)" style="text-anchor: end;"><tspan fill="rgb(162, 162, 162)" style="font-family: Roboto; font-weight: 400; font-stretch: 100%; font-size: 12px;" x="0" dominant-baseline="auto" y="0">−4</tspan></text><text transform="translate(0, 317.91967) translate(-23.75195, 0) translate(23.751953125, 0)" style="text-anchor: end;"><tspan fill="rgb(162, 162, 162)" style="font-family: Roboto; font-weight: 400; font-stretch: 100%; font-size: 12px;" x="0" dominant-baseline="auto" y="0">−3.5</tspan></text><text transform="translate(0, 281.10168) translate(-13.59375, 0) translate(13.59375, 0)" style="text-anchor: end;"><tspan fill="rgb(162, 162, 162)" style="font-family: Roboto; font-weight: 400; font-stretch: 100%; font-size: 12px;" x="0" dominant-baseline="auto" y="0">−3</tspan></text><text transform="translate(0, 244.2837) translate(-23.75195, 0) translate(23.751953125, 0)" style="text-anchor: end;"><tspan fill="rgb(162, 162, 162)" style="font-family: Roboto; font-weight: 400; font-stretch: 100%; font-size: 12px;" x="0" dominant-baseline="auto" y="0">−2.5</tspan></text><text transform="translate(0, 207.46572) translate(-13.85547, 0) translate(13.85546875, 0)" style="text-anchor: end;"><tspan fill="rgb(162, 162, 162)" style="font-family: Roboto; font-weight: 400; font-stretch: 100%; font-size: 12px;" x="0" dominant-baseline="auto" y="0">−2</tspan></text><text transform="translate(0, 170.64774) translate(-23.75195, 0) translate(23.751953125, 0)" style="text-anchor: end;"><tspan fill="rgb(162, 162, 162)" style="font-family: Roboto; font-weight: 400; font-stretch: 100%; font-size: 12px;" x="0" dominant-baseline="auto" y="0">−1.5</tspan></text><text transform="translate(0, 133.82976) translate(-13.59375, 0) translate(13.59375, 0)" style="text-anchor: end;"><tspan fill="rgb(162, 162, 162)" style="font-family: Roboto; font-weight: 400; font-stretch: 100%; font-size: 12px;" x="0" dominant-baseline="auto" y="0">−1</tspan></text><text transform="translate(0, 97.01177) translate(-23.75195, 0) translate(23.751953125, 0)" style="text-anchor: end;"><tspan fill="rgb(162, 162, 162)" style="font-family: Roboto; font-weight: 400; font-stretch: 100%; font-size: 12px;" x="0" dominant-baseline="auto" y="0">−0.5</tspan></text><text transform="translate(0, 60.19379) translate(-7, 0) translate(7, 0)" style="text-anchor: end;"><tspan fill="rgb(162, 162, 162)" style="font-family: Roboto; font-weight: 400; font-stretch: 100%; font-size: 12px;" x="0" dominant-baseline="auto" y="0">0</tspan></text><text transform="translate(0, 23.37581) translate(-16.89648, 0) translate(16.896484375, 0)" style="text-anchor: end;"><tspan fill="rgb(162, 162, 162)" style="font-family: Roboto; font-weight: 400; font-stretch: 100%; font-size: 12px;" x="0" dominant-baseline="auto" y="0">0.5</tspan></text></g><g id="y-base-lines-svg grid-y-svg datawrapper-9lMNm-1io9s9d-svg"><line x1="564.1774520874023" x2="0" y1="0" y2="0" transform="translate(0, 56.19379)" style="fill: none; stroke-width: 1; stroke-linejoin: miter; stroke-linecap: square; stroke: rgb(24, 24, 24);"/></g></g></g></g><g id="Backstroke-svg" clip-path="url(#rect-mask-_SZDISSkgMMY4JhWx8t-Y)" transform="translate(0, 62)"><clipPath id="rect-mask-_SZDISSkgMMY4JhWx8t-Y"><rect x="0" y="0" width="16" height="20"/></clipPath><path d="M1.5,10 L14.5,10" stroke="rgb(136,245,255)" id="Backstroke" style="fill: none; stroke-width: 3; stroke-linejoin: round; stroke-linecap: round; stroke: rgb(136, 245, 255);"/></g><text transform="translate(20, 64.78125)" id="Backstroke"><tspan fill="rgb(24,24,24)" x="0" y="12.828125" style="font-family: Roboto; font-weight: 400; font-stretch: 100%; font-size: 12px;">Backstroke</tspan></text><g id="Breastroke-svg" clip-path="url(#rect-mask-ovldm0OgV0GeSv4kfYoVg)" transform="translate(87.57813, 62)"><clipPath id="rect-mask-ovldm0OgV0GeSv4kfYoVg"><rect x="0" y="0" width="16" height="20"/></clipPath><path d="M1.5,10 L14.5,10" stroke="rgb(24,161,205)" id="Breastroke" style="fill: none; stroke-width: 3; stroke-linejoin: round; stroke-linecap: round; stroke: rgb(24, 161, 205);"/></g><text transform="translate(107.578125, 64.78125)" id="Breastroke"><tspan fill="rgb(24,24,24)" x="0" y="12.828125" style="font-family: Roboto; font-weight: 400; font-stretch: 100%; font-size: 12px;">Breastroke</tspan></text><g id="Butterfly-svg" clip-path="url(#rect-mask-CZN9_fqKMuLdg1ylcl4_l)" transform="translate(173.10938, 62)"><clipPath id="rect-mask-CZN9_fqKMuLdg1ylcl4_l"><rect x="0" y="0" width="16" height="20"/></clipPath><path d="M1.5,10 L14.5,10" stroke="rgb(0,85,125)" id="Butterfly" style="fill: none; stroke-width: 3; stroke-linejoin: round; stroke-linecap: round; stroke: rgb(0, 85, 125);"/></g><text transform="translate(193.109375, 64.78125)" id="Butterfly"><tspan fill="rgb(24,24,24)" x="0" y="12.828125" style="font-family: Roboto; font-weight: 400; font-stretch: 100%; font-size: 12px;">Butterfly</tspan></text><g id="Freestyle-svg" clip-path="url(#rect-mask-bB0Inw-II5bSxgUXxgqb4)" transform="translate(245.95313, 62)"><clipPath id="rect-mask-bB0Inw-II5bSxgUXxgqb4"><rect x="0" y="0" width="16" height="20"/></clipPath><path d="M1.5,10 L14.5,10" stroke="rgb(88,202,248)" id="Freestyle" style="fill: none; stroke-width: 3; stroke-linejoin: round; stroke-linecap: round; stroke: rgb(88, 202, 248);"/></g><text transform="translate(265.953125, 64.78125)" id="Freestyle"><tspan fill="rgb(24,24,24)" x="0" y="12.828125" style="font-family: Roboto; font-weight: 400; font-stretch: 100%; font-size: 12px;">Freestyle</tspan></text><g id="Medley-svg" clip-path="url(#rect-mask-TvF0o3_idvzh_K4o0yQF6)" transform="translate(322.15625, 62)"><clipPath id="rect-mask-TvF0o3_idvzh_K4o0yQF6"><rect x="0" y="0" width="16" height="20"/></clipPath><path d="M1.5,10 L14.5,10" stroke="rgb(0,122,164)" id="Medley" style="fill: none; stroke-width: 3; stroke-linejoin: round; stroke-linecap: round; stroke: rgb(0, 122, 164);"/></g><text transform="translate(342.15625, 64.78125)" id="Medley"><tspan fill="rgb(24,24,24)" x="0" y="12.828125" style="font-family: Roboto; font-weight: 400; font-stretch: 100%; font-size: 12px;">Medley</tspan></text><g id="tooltip-layer-svg" clip-path="url(#rect-mask-BsasNiD-v-Ig0QrH8IPLa)" transform="translate(0, 62)"><clipPath id="rect-mask-BsasNiD-v-Ig0QrH8IPLa"><rect x="0" y="0" width="600" height="450"/></clipPath><g id="group-svg" transform="translate(29.76172, 33)"/></g></g><g id="footer-svg"><text transform="translate(0, 532)"><tspan fill="rgb(136,136,136)" x="0" y="11" style="font-family: Roboto; font-weight: 400; font-stretch: 100%; font-size: 11px;">Chart:</tspan><tspan fill="rgb(136,136,136)" dx="2.734375" style="font-family: Roboto; font-weight: 400; font-stretch: 100%; font-size: 11px;">Marco Dalla Stella</tspan><tspan fill="rgb(136,136,136)" dx="2.734375" style="font-family: Roboto; font-weight: 400; font-stretch: 100%; font-size: 11px;">•</tspan><tspan fill="rgb(136,136,136)" dx="2.734375" style="font-family: Roboto; font-weight: 400; font-stretch: 100%; font-size: 11px;">Source</tspan><tspan fill="rgb(136,136,136)" style="font-family: Roboto; font-weight: 400; font-stretch: 100%; font-size: 11px;">:</tspan><tspan fill="rgb(136,136,136)" dx="2.734375" style="font-family: Roboto; font-weight: 400; font-stretch: 100%; font-size: 11px;">World Aquatics</tspan><tspan fill="rgb(136,136,136)" dx="2.734375" style="font-family: Roboto; font-weight: 400; font-stretch: 100%; font-size: 11px;">•</tspan><tspan fill="rgb(136,136,136)" dx="2.734375" style="font-family: Roboto; font-weight: 400; font-stretch: 100%; font-size: 11px;">Created with</tspan><tspan fill="rgb(136,136,136)" dx="2.734375" style="font-family: Roboto; font-weight: 400; font-stretch: 100%; font-size: 11px;">Datawrapper</tspan></text></g></g></g></g></svg>