<svg xmlns="http://www.w3.org/2000/svg" xmlns:xlink="http://www.w3.org/1999/xlink" id="exportSvg" width="320" height="545"><defs/><rect width="320" height="545" transform="translate(0, 0)" fill="rgb(255, 255, 255)" style="fill: rgb(255, 255, 255);"/><g><g id="__svelte-dw-svg" clip-path="url(#rect-mask-EDg_bf8xbD1mE-1PYtWb7)"><clipPath id="rect-mask-EDg_bf8xbD1mE-1PYtWb7"><rect x="0" y="0" width="320" height="545"/></clipPath><g id="outer-container-svg dw-chart-styles-svg datawrapper-9lMNm-cadg66-svg svelte-crzbxb-svg static-svg" clip-path="url(#rect-mask-NGnuCpiHP66_AXO7pKej5)"><clipPath id="rect-mask-NGnuCpiHP66_AXO7pKej5"><rect x="0" y="0" width="320" height="545"/></clipPath><g id="header-svg"><text transform="translate(0, 0)"><tspan fill="rgb(0,0,0)" x="0" y="22" style="font-family: Roboto; font-weight: 700; font-stretch: 100%; font-size: 22px;">Never swam faster</tspan></text><text transform="translate(0, 35)"><tspan fill="rgb(24,24,24)" x="0" y="14" style="font-family: Roboto; font-weight: 400; font-stretch: 100%; font-size: 14px;">Average top-50 world time, individual races</tspan></text></g><g id="chart-svg"><g id="svg-main-svg" clip-path="url(#rect-mask-sTfGtCsr840_Q5teIpeTL)" transform="translate(0, 62)"><clipPath id="rect-mask-sTfGtCsr840_Q5teIpeTL"><rect x="0" y="0" width="320" height="437"/></clipPath><g id="group-svg" transform="translate(0, 56.45314)"><g id="x-grid-svg"/><g id="y-grid-svg"/><g id="lines-svg"><g id="Backstroke-svg"><path d="M57.92899408300943,45.089057310743165C62.3493511588767,52.846437851020866,66.76970823474397,60.603818391298574,71.19006531061125,60.603818391298574C75.62253295380965,60.603818391298574,80.05500059700807,40.675680803090614,84.48746824020648,40.675680803090614C88.90782531607375,40.675680803090614,93.32818239194104,66.49202945401572,97.74853946780831,75.89622379582246C102.16889654367559,85.30041813762918,106.58925361954284,82.96443148185865,111.00961069541012,97.10084685393102C115.42996777127739,111.2372622260034,119.85032484714466,177.3818580428132,124.27068192301194,196.8218181407684C128.70314956621036,216.31503840337555,133.13561720940876,226.0616485346791,137.56808485260717,226.0616485346791C141.98844192847446,226.0616485346791,146.40879900434172,173.03436791119256,150.829156080209,173.03436791119256C155.24951315607626,173.03436791119256,159.66987023194355,214.4041166319706,164.0902273078108,226.6959681543483C168.5105843836781,238.98781967672602,172.93094145954535,246.78547704545875,177.35129853541264,246.78547704545875C181.78376617861105,246.78547704545875,186.21623382180948,229.6764637968788,190.6487014650079,227.20905061075325C195.06905854087515,224.74837899071,199.4894156167424,223.51804318068838,203.90977269260966,223.51804318068838C208.33012976847695,223.51804318068838,212.7504868443442,259.21532546321595,217.1708439202115,264.2986278565576C221.59120099607878,269.3819302498992,226.01155807194604,271.92358144657,230.43191514781333,271.92358144657C234.86438279101174,271.92358144657,239.29685043421017,261.9753411849549,243.72931807740858,261.9753411849549C248.14967515327587,261.9753411849549,252.57003222914312,265.1678545687119,256.9903893050104,265.1678545687119C261.41074638087764,265.1678545687119,265.8311034567449,264.7243615368986,270.25146053261216,263.8373754732719C274.67181760847944,262.9503894096452,279.09217468434673,184.13170573471515,283.512531760214,184.13170573471515C287.94499940341245,184.13170573471515,292.37746704661083,298.94333550560833,296.80993468980927,298.94333550560833C301.23029176567655,298.94333550560833,305.65064884154384,284.3214653536937,310.0710059174111,269.6995952017791" stroke="rgb(136,245,255)" id="Backstroke" style="fill: none; stroke-width: 3; stroke-linejoin: round; stroke-linecap: round; stroke: rgb(136, 245, 255);"/></g><g id="Freestyle-svg"><path d="M57.92899408300943,45.089057310743165C62.3493511588767,58.14413757718995,66.76970823474397,71.19921784363675,71.19006531061125,71.19921784363675C75.62253295380965,71.19921784363675,80.05500059700807,51.38895557563361,84.48746824020648,51.38895557563361C88.90782531607375,51.38895557563361,93.32818239194104,77.21373179834258,97.74853946780831,85.90622355876029C102.16889654367559,94.59871531917798,106.58925361954284,91.78545108522015,111.00961069541012,103.54390613813985C115.42996777127739,115.30236119105956,119.85032484714466,178.59769794199678,124.27068192301194,186.22698436243942C128.70314956621036,193.87717293745862,133.13561720940876,197.7022672249682,137.56808485260717,197.7022672249682C141.98844192847446,197.7022672249682,146.40879900434172,143.11096053635706,150.829156080209,143.11096053635706C155.24951315607626,143.11096053635706,159.66987023194355,175.65932006118058,164.0902273078108,187.5588623991282C168.5105843836781,199.45840473707585,172.93094145954535,214.50821456404285,177.35129853541264,214.50821456404285C181.78376617861105,214.50821456404285,186.21623382180948,208.60973060567977,190.6487014650079,208.60973060567977C195.06905854087515,208.60973060567977,199.4894156167424,216.690429864015,203.90977269260966,219.03836228178852C208.33012976847695,221.38629469956206,212.7504868443442,220.25801655863265,217.1708439202115,222.69732511232093C221.59120099607878,225.1366336660092,226.01155807194604,248.79580424649492,230.43191514781333,248.79580424649492C234.86438279101174,248.79580424649492,239.29685043421017,236.40580665869624,243.72931807740858,236.40580665869624C248.14967515327587,236.40580665869624,252.57003222914312,237.6132924844481,256.9903893050104,240.02826413595184C261.41074638087764,242.44323578745556,265.8311034567449,253.57861787643844,270.25146053261216,253.57861787643844C274.67181760847944,253.57861787643844,279.09217468434673,161.49326219524548,283.512531760214,161.49326219524548C287.94499940341245,161.49326219524548,292.37746704661083,265.19470417270844,296.80993468980927,265.19470417270844C301.23029176567655,265.19470417270844,305.65064884154384,257.2277294769658,310.0710059174111,249.26075478122317" stroke="rgb(88,202,248)" id="Freestyle" style="fill: none; stroke-width: 3; stroke-linejoin: round; stroke-linecap: round; stroke: rgb(88, 202, 248);"/></g><g id="Breastroke-svg"><path d="M57.92899408300943,45.089057310743165C62.3493511588767,56.38428227792542,66.76970823474397,67.67950724510767,71.19006531061125,67.67950724510767C75.62253295380965,67.67950724510767,80.05500059700807,45.163696501424866,84.48746824020648,45.163696501424866C88.90782531607375,45.163696501424866,93.32818239194104,82.29173185949517,97.74853946780831,84.64571781831842C102.16889654367559,86.99970377714165,106.58925361954284,85.82271079773004,111.00961069541012,88.17669675655327C115.42996777127739,90.53068271537651,119.85032484714466,148.11656394553228,124.27068192301194,172.2243558763322C128.70314956621036,196.39819655214797,133.13561720940876,232.9572639244032,137.56808485260717,232.9572639244032C141.98844192847446,232.9572639244032,146.40879900434172,152.92818516713675,150.829156080209,152.92818516713675C155.24951315607626,152.92818516713675,159.66987023194355,185.02519104253426,164.0902273078108,199.11515930418238C168.5105843836781,213.20512756583054,172.93094145954535,237.46799473702555,177.35129853541264,237.46799473702555C181.78376617861105,237.46799473702555,186.21623382180948,232.6021137636199,190.6487014650079,232.6021137636199C195.06905854087515,232.6021137636199,199.4894156167424,232.7832897031484,203.90977269260966,233.1456415822054C208.33012976847695,233.5079934612624,212.7504868443442,249.30238864039538,217.1708439202115,256.4994381044672C221.59120099607878,263.696487568539,226.01155807194604,275.0080912476324,230.43191514781333,276.32793836663626C234.86438279101174,277.65140150514424,239.29685043421017,278.3131330743982,243.72931807740858,278.3131330743982C248.14967515327587,278.3131330743982,252.57003222914312,268.9189748770618,256.9903893050104,268.9189748770618C261.41074638087764,268.9189748770618,265.8311034567449,284.3797626571101,270.25146053261216,284.3797626571101C274.67181760847944,284.3797626571101,279.09217468434673,214.13439213878152,283.512531760214,214.13439213878152C287.94499940341245,214.13439213878152,292.37746704661083,318.54686164855957,296.80993468980927,318.54686164855957C301.23029176567655,318.54686164855957,305.65064884154384,293.7457225900223,310.0710059174111,268.944583531485" stroke="rgb(24,161,205)" id="Breastroke" style="fill: none; stroke-width: 3; stroke-linejoin: round; stroke-linecap: round; stroke: rgb(24, 161, 205);"/></g><g id="Medley-svg"><path d="M57.92899408300943,45.089057310743165C62.3493511588767,50.83751942878554,66.76970823474397,56.58598154682791,71.19006531061125,56.58598154682791C75.62253295380965,56.58598154682791,80.05500059700807,0,84.48746824020648,0C88.90782531607375,0,93.32818239194104,60.47733524266451,97.74853946780831,67.78735257546673C102.16889654367559,75.09736990826893,106.58925361954284,71.44236124186783,111.00961069541012,78.75237857467003C115.42996777127739,86.06239590747225,119.85032484714466,170.03722644119205,124.27068192301194,177.63160395195425C128.70314956621036,185.24678797644455,133.13561720940876,189.0543799886897,137.56808485260717,189.0543799886897C141.98844192847446,189.0543799886897,146.40879900434172,158.94393747170253,150.829156080209,158.94393747170253C155.24951315607626,158.94393747170253,159.66987023194355,197.425217566507,164.0902273078108,211.39023614609263C168.5105843836781,225.3552547256783,172.93094145954535,242.73404894921632,177.35129853541264,242.73404894921632C181.78376617861105,242.73404894921632,186.21623382180948,229.41344104286915,190.6487014650079,229.41344104286915C195.06905854087515,229.41344104286915,199.4894156167424,237.56690110045687,203.90977269260966,240.39901949020643C208.33012976847695,243.231137879956,212.7504868443442,242.4013967872598,217.1708439202115,246.40615138136656C221.59120099607878,250.4109059754733,226.01155807194604,269.2623154850702,230.43191514781333,269.2623154850702C234.86438279101174,269.2623154850702,239.29685043421017,261.0545595742578,243.72931807740858,256.47453810829205C248.14967515327587,251.9070303621787,252.57003222914312,241.8249244940929,256.9903893050104,241.8249244940929C261.41074638087764,241.8249244940929,265.8311034567449,256.1922554925703,270.25146053261216,256.1922554925703C274.67181760847944,256.1922554925703,279.09217468434673,168.59680355159222,283.512531760214,168.59680355159222C287.94499940341245,168.59680355159222,292.37746704661083,264.34530825187284,296.80993468980927,264.34530825187284C301.23029176567655,264.34530825187284,305.65064884154384,255.46038685530374,310.0710059174111,246.57546545873467" stroke="rgb(0,122,164)" id="Medley" style="fill: none; stroke-width: 3; stroke-linejoin: round; stroke-linecap: round; stroke: rgb(0, 122, 164);"/></g><g id="Butterfly-svg"><path d="M57.92899408300943,45.089057310743165C62.3493511588767,61.819377922538024,66.76970823474397,78.54969853433289,71.19006531061125,78.54969853433289C75.62253295380965,78.54969853433289,80.05500059700807,34.68955111048821,84.48746824020648,34.68955111048821C88.90782531607375,34.68955111048821,93.32818239194104,63.57713513489348,97.74853946780831,74.82825371848094C102.16889654367559,86.07937230206836,106.58925361954284,85.33430562871617,111.00961069541012,102.19626261201289C115.42996777127739,119.05821959530962,119.85032484714466,156.26502804616504,124.27068192301194,175.99999561826135C128.70314956621036,195.78903159466475,133.13561720940876,220.68817008662103,137.56808485260717,220.68817008662103C141.98844192847446,220.68817008662103,146.40879900434172,136.83087220599347,150.829156080209,136.83087220599347C155.24951315607626,136.83087220599347,159.66987023194355,180.328257271786,164.0902273078108,190.73886915240394C168.5105843836781,201.14948103302189,172.93094145954535,206.35478697333087,177.35129853541264,206.35478697333087C181.78376617861105,206.35478697333087,186.21623382180948,181.88064885120153,190.6487014650079,181.88064885120153C195.06905854087515,181.88064885120153,199.4894156167424,183.65563413798608,203.90977269260966,187.20560471155522C208.33012976847695,190.75557528512437,212.7504868443442,206.435153480416,217.1708439202115,213.8975389835387C221.59120099607878,221.3599244866614,226.01155807194604,231.97991773029148,230.43191514781333,231.97991773029148C234.86438279101174,231.97991773029148,239.29685043421017,231.94689859272808,243.72931807740858,231.88086031760128C248.14967515327587,231.81500247492016,252.57003222914312,218.27488358118129,256.9903893050104,218.27488358118129C261.41074638087764,218.27488358118129,265.8311034567449,224.46307428690187,270.25146053261216,224.46307428690187C274.67181760847944,224.46307428690187,279.09217468434673,152.3498214248891,283.512531760214,152.3498214248891C287.94499940341245,152.3498214248891,292.37746704661083,262.3340276059352,296.80993468980927,262.3340276059352C301.23029176567655,262.3340276059352,305.65064884154384,248.6574022980373,310.0710059174111,234.9807769901394" stroke="rgb(0,85,125)" id="Butterfly" style="fill: none; stroke-width: 3; stroke-linejoin: round; stroke-linecap: round; stroke: rgb(0, 85, 125);"/></g></g><g id="line-symbols-svg"/><g id="x-grid-svg"><g id="x-tick-labels-svg date-axis-svg grid-x-svg datawrapper-9lMNm-63wp0p-svg" transform="translate(0, 323.54686)"><text transform="translate(84.48747, 12) translate(-13.60742, 0) translate(13.607421875, 0)" style="text-anchor: middle;"><tspan fill="rgb(116, 116, 116)" style="font-family: Roboto; font-weight: 400; font-stretch: 100%; font-size: 12px;" x="0" dominant-baseline="auto" y="0">2005</tspan></text><text transform="translate(150.82916, 12) translate(-13.60742, 0) translate(13.607421875, 0)" style="text-anchor: middle;"><tspan fill="rgb(116, 116, 116)" style="font-family: Roboto; font-weight: 400; font-stretch: 100%; font-size: 12px;" x="0" dominant-baseline="auto" y="0">2010</tspan></text><text transform="translate(217.17084, 12) translate(-13.60742, 0) translate(13.607421875, 0)" style="text-anchor: middle;"><tspan fill="rgb(116, 116, 116)" style="font-family: Roboto; font-weight: 400; font-stretch: 100%; font-size: 12px;" x="0" dominant-baseline="auto" y="0">2015</tspan></text><text transform="translate(283.51253, 12) translate(-13.60742, 0) translate(13.607421875, 0)" style="text-anchor: middle;"><tspan fill="rgb(116, 116, 116)" style="font-family: Roboto; font-weight: 400; font-stretch: 100%; font-size: 12px;" x="0" dominant-baseline="auto" y="0">2020</tspan></text></g></g><g id="y-grid-svg"><g id="y-tick-labels-svg number-axis-svg grid-y-svg datawrapper-9lMNm-yhj5g2-svg"><text transform="translate(0, 305.96884) translate(0, 0)"><tspan fill="rgb(162, 162, 162)" style="font-family: Roboto; font-weight: 400; font-stretch: 100%; font-size: 12px;" x="0" dominant-baseline="auto" y="0">−4.5</tspan></text><text transform="translate(0, 276.42664) translate(0, 0)"><tspan fill="rgb(162, 162, 162)" style="font-family: Roboto; font-weight: 400; font-stretch: 100%; font-size: 12px;" x="0" dominant-baseline="auto" y="0">−4</tspan></text><text transform="translate(0, 246.88444) translate(0, 0)"><tspan fill="rgb(162, 162, 162)" style="font-family: Roboto; font-weight: 400; font-stretch: 100%; font-size: 12px;" x="0" dominant-baseline="auto" y="0">−3.5</tspan></text><text transform="translate(0, 217.34225) translate(0, 0)"><tspan fill="rgb(162, 162, 162)" style="font-family: Roboto; font-weight: 400; font-stretch: 100%; font-size: 12px;" x="0" dominant-baseline="auto" y="0">−3</tspan></text><text transform="translate(0, 187.80005) translate(0, 0)"><tspan fill="rgb(162, 162, 162)" style="font-family: Roboto; font-weight: 400; font-stretch: 100%; font-size: 12px;" x="0" dominant-baseline="auto" y="0">−2.5</tspan></text><text transform="translate(0, 158.25785) translate(0, 0)"><tspan fill="rgb(162, 162, 162)" style="font-family: Roboto; font-weight: 400; font-stretch: 100%; font-size: 12px;" x="0" dominant-baseline="auto" y="0">−2</tspan></text><text transform="translate(0, 128.71565) translate(0, 0)"><tspan fill="rgb(162, 162, 162)" style="font-family: Roboto; font-weight: 400; font-stretch: 100%; font-size: 12px;" x="0" dominant-baseline="auto" y="0">−1.5</tspan></text><text transform="translate(0, 99.17345) translate(0, 0)"><tspan fill="rgb(162, 162, 162)" style="font-family: Roboto; font-weight: 400; font-stretch: 100%; font-size: 12px;" x="0" dominant-baseline="auto" y="0">−1</tspan></text><text transform="translate(0, 69.63126) translate(0, 0)"><tspan fill="rgb(162, 162, 162)" style="font-family: Roboto; font-weight: 400; font-stretch: 100%; font-size: 12px;" x="0" dominant-baseline="auto" y="0">−0.5</tspan></text><text transform="translate(0, 40.08906) translate(0, 0)"><tspan fill="rgb(162, 162, 162)" style="font-family: Roboto; font-weight: 400; font-stretch: 100%; font-size: 12px;" x="0" dominant-baseline="auto" y="0">0</tspan></text><text transform="translate(0, 10.54686) translate(0, 0)"><tspan fill="rgb(162, 162, 162)" style="font-family: Roboto; font-weight: 400; font-stretch: 100%; font-size: 12px;" x="0" dominant-baseline="auto" y="0">0.5</tspan></text></g><g id="y-base-lines-svg grid-y-svg datawrapper-9lMNm-1io9s9d-svg"><line x1="318" x2="0" y1="0" y2="0" transform="translate(0, 45.08906)" style="fill: none; stroke-width: 1; stroke-linejoin: miter; stroke-linecap: square; stroke: rgb(24, 24, 24);"/></g></g></g></g><g id="Backstroke-svg" clip-path="url(#rect-mask--wE-qZchutOz21vUYRF6t)" transform="translate(0, 62)"><clipPath id="rect-mask--wE-qZchutOz21vUYRF6t"><rect x="0" y="0" width="16" height="20"/></clipPath><path d="M1.5,10 L14.5,10" stroke="rgb(136,245,255)" id="Backstroke" style="fill: none; stroke-width: 3; stroke-linejoin: round; stroke-linecap: round; stroke: rgb(136, 245, 255);"/></g><text transform="translate(20, 64.78125)" id="Backstroke"><tspan fill="rgb(24,24,24)" x="0" y="12.828125" style="font-family: Roboto; font-weight: 400; font-stretch: 100%; font-size: 12px;">Backstroke</tspan></text><g id="Breastroke-svg" clip-path="url(#rect-mask--oG8XWpoGW_iVy_uSwecQ)" transform="translate(87.57813, 62)"><clipPath id="rect-mask--oG8XWpoGW_iVy_uSwecQ"><rect x="0" y="0" width="16" height="20"/></clipPath><path d="M1.5,10 L14.5,10" stroke="rgb(24,161,205)" id="Breastroke" style="fill: none; stroke-width: 3; stroke-linejoin: round; stroke-linecap: round; stroke: rgb(24, 161, 205);"/></g><text transform="translate(107.578125, 64.78125)" id="Breastroke"><tspan fill="rgb(24,24,24)" x="0" y="12.828125" style="font-family: Roboto; font-weight: 400; font-stretch: 100%; font-size: 12px;">Breastroke</tspan></text><g id="Butterfly-svg" clip-path="url(#rect-mask-YTn7tfzztmiAJLkOrpPQL)" transform="translate(173.10938, 62)"><clipPath id="rect-mask-YTn7tfzztmiAJLkOrpPQL"><rect x="0" y="0" width="16" height="20"/></clipPath><path d="M1.5,10 L14.5,10" stroke="rgb(0,85,125)" id="Butterfly" style="fill: none; stroke-width: 3; stroke-linejoin: round; stroke-linecap: round; stroke: rgb(0, 85, 125);"/></g><text transform="translate(193.109375, 64.78125)" id="Butterfly"><tspan fill="rgb(24,24,24)" x="0" y="12.828125" style="font-family: Roboto; font-weight: 400; font-stretch: 100%; font-size: 12px;">Butterfly</tspan></text><g id="Freestyle-svg" clip-path="url(#rect-mask-EEQJocji6QgFbclzJedzE)" transform="translate(0, 85)"><clipPath id="rect-mask-EEQJocji6QgFbclzJedzE"><rect x="0" y="0" width="16" height="20"/></clipPath><path d="M1.5,10 L14.5,10" stroke="rgb(88,202,248)" id="Freestyle" style="fill: none; stroke-width: 3; stroke-linejoin: round; stroke-linecap: round; stroke: rgb(88, 202, 248);"/></g><text transform="translate(20, 87.78125)" id="Freestyle"><tspan fill="rgb(24,24,24)" x="0" y="12.828125" style="font-family: Roboto; font-weight: 400; font-stretch: 100%; font-size: 12px;">Freestyle</tspan></text><g id="Medley-svg" clip-path="url(#rect-mask-cdBmuNBFYt_saFHHxpEjG)" transform="translate(76.20313, 85)"><clipPath id="rect-mask-cdBmuNBFYt_saFHHxpEjG"><rect x="0" y="0" width="16" height="20"/></clipPath><path d="M1.5,10 L14.5,10" stroke="rgb(0,122,164)" id="Medley" style="fill: none; stroke-width: 3; stroke-linejoin: round; stroke-linecap: round; stroke: rgb(0, 122, 164);"/></g><text transform="translate(96.203125, 87.78125)" id="Medley"><tspan fill="rgb(24,24,24)" x="0" y="12.828125" style="font-family: Roboto; font-weight: 400; font-stretch: 100%; font-size: 12px;">Medley</tspan></text><circle r="11" cx="11" cy="488" stroke="rgb(24,24,24)" fill="none"/><text transform="translate(7.546875, 481)"><tspan fill="rgb(24,24,24)" x="0" y="12" style="font-family: Roboto; font-weight: 700; font-stretch: 100%; font-size: 12px;">1</tspan></text><circle r="11" cx="85" cy="375.453125" stroke="rgb(24,24,24)" fill="rgba(255,255,255,0.7)"/><text transform="translate(81.546875, 368.25)"><tspan fill="rgb(24,24,24)" x="0" y="12" style="font-family: Roboto; font-weight: 700; font-stretch: 100%; font-size: 12px;">1</tspan></text><g id="tooltip-layer-svg" clip-path="url(#rect-mask-Nph95qt00p_5HL6ROnQbk)" transform="translate(0, 62)"><clipPath id="rect-mask-Nph95qt00p_5HL6ROnQbk"><rect x="0" y="0" width="320" height="437"/></clipPath><g id="group-svg" transform="translate(0, 56.45314)"/></g></g><g id="footer-svg"><text transform="translate(0, 519)"><tspan fill="rgb(136,136,136)" x="0" y="11" style="font-family: Roboto; font-weight: 400; font-stretch: 100%; font-size: 11px;">Chart:</tspan><tspan fill="rgb(136,136,136)" dx="2.734375" style="font-family: Roboto; font-weight: 400; font-stretch: 100%; font-size: 11px;">Marco Dalla Stella</tspan><tspan fill="rgb(136,136,136)" dx="2.734375" style="font-family: Roboto; font-weight: 400; font-stretch: 100%; font-size: 11px;">•</tspan><tspan fill="rgb(136,136,136)" dx="2.734375" style="font-family: Roboto; font-weight: 400; font-stretch: 100%; font-size: 11px;">Source</tspan><tspan fill="rgb(136,136,136)" style="font-family: Roboto; font-weight: 400; font-stretch: 100%; font-size: 11px;">:</tspan><tspan fill="rgb(136,136,136)" dx="2.734375" style="font-family: Roboto; font-weight: 400; font-stretch: 100%; font-size: 11px;">World Aquatics</tspan><tspan fill="rgb(136,136,136)" dx="2.734375" style="font-family: Roboto; font-weight: 400; font-stretch: 100%; font-size: 11px;">•</tspan><tspan fill="rgb(136,136,136)" dx="2.734375" style="font-family: Roboto; font-weight: 400; font-stretch: 100%; font-size: 11px;">Created with</tspan><tspan fill="rgb(136,136,136)" x="0" y="24" style="font-family: Roboto; font-weight: 400; font-stretch: 100%; font-size: 11px;">Datawrapper</tspan></text></g></g></g></g></svg>